<?xml version="1.0" encoding="UTF-8" standalone="no"?>
<!DOCTYPE svg PUBLIC "-//W3C//DTD SVG 1.1//EN" "http://www.w3.org/Graphics/SVG/1.1/DTD/svg11.dtd">
<svg version="1.1" xmlns="http://www.w3.org/2000/svg" xmlns:xlink="http://www.w3.org/1999/xlink" preserveAspectRatio="xMidYMid meet" viewBox="0 0 640 640" width="640" height="640"><defs><path d="M328.89 231.57C328.89 231.57 348.24 144.44 435.34 192.82C429.86 196.69 402.44 216.04 353.08 250.88C338.57 239.3 330.5 232.86 328.89 231.57Z" id="bDBYEnZWj"></path><path d="M628.89 231.57C628.89 231.57 609.53 144.44 522.44 192.82C527.92 196.69 555.34 216.04 604.7 250.88C619.21 239.3 627.28 232.86 628.89 231.57Z" id="cx4dOd9zo"></path><path d="M391.79 429.9C359.72 429.9 333.73 403.91 333.73 371.84C333.73 364.1 333.73 302.17 333.73 294.43C333.73 235.64 381.39 187.98 440.18 187.98C447.92 187.98 509.86 187.98 517.6 187.98C576.39 187.98 624.05 235.64 624.05 294.43C624.05 302.17 624.05 364.1 624.05 371.84C624.05 403.91 598.05 429.9 565.99 429.9C531.15 429.9 409.21 429.9 391.79 429.9Z" id="e1k2DIYPEC"></path><path d="M517.6 187.98C509.86 187.98 447.92 187.98 440.18 187.98C437.6 187.98 435.06 188.11 432.52 188.29C476.03 197.62 430.5 265.51 430.5 304.1C440.18 304.1 517.6 304.1 527.28 304.1C527.28 265.51 481.75 197.62 525.25 188.29C522.72 188.11 520.17 187.98 517.6 187.98Z" id="b1UmylOUrO"></path><path d="M411.15 357.32C411.15 409.58 411.15 438.61 411.15 444.42C411.15 444.42 445.02 458.93 454.7 458.93C464.37 458.93 469.21 454.09 478.89 454.09C488.57 454.09 493.4 458.93 503.08 458.93C512.76 458.93 546.63 444.42 546.63 444.42C546.63 438.61 546.63 409.58 546.63 357.32L478.89 357.32L411.15 357.32Z" id="fHTuXjdoq"></path><path d="M580.5 434.74C580.5 429.9 580.5 391.19 580.5 386.36C580.5 330.24 535.01 284.75 478.89 284.75C478.89 284.75 478.89 284.75 478.89 284.75C422.77 284.75 377.28 330.24 377.28 386.36C377.28 391.19 377.28 429.9 377.28 434.74C377.28 445.43 385.94 454.09 396.63 454.09C396.63 454.09 396.63 454.09 396.63 454.09C407.32 454.09 415.98 445.43 415.98 434.74C415.98 432.8 415.98 417.32 415.98 415.39C415.98 388.66 437.65 367 464.37 367C467.28 367 490.5 367 493.4 367C520.13 367 541.79 388.66 541.79 415.39C541.79 417.32 541.79 432.8 541.79 434.74C541.79 445.43 550.46 454.09 561.15 454.09C561.15 454.09 561.15 454.09 561.15 454.09C574.05 448.32 580.5 441.86 580.5 434.74Z" id="c14TJgbEb"></path><path d="M403.89 265.39C397.21 265.39 391.79 270.81 391.79 277.49C391.79 284.17 397.21 289.59 403.89 289.59C410.57 289.59 415.99 284.17 415.99 277.49C415.99 270.81 410.57 265.39 403.89 265.39Z" id="a1fTULcJJ5"></path><path d="M553.89 265.39C547.21 265.39 541.79 270.81 541.79 277.49C541.79 284.17 547.21 289.59 553.89 289.59C560.57 289.59 565.99 284.17 565.99 277.49C565.99 270.81 560.57 265.39 553.89 265.39Z" id="egWCjTV1k"></path><path d="M541.79 410.55C541.79 383.83 520.13 362.16 493.41 362.16C493.41 362.16 493.41 362.16 493.41 362.16C488.06 362.16 483.73 357.83 483.73 352.49C483.73 351.2 483.73 344.75 483.73 333.13C485.18 333.13 485.99 333.13 486.15 333.13C495.5 333.13 503.08 325.55 503.08 316.2C503.08 316.2 503.08 316.2 503.08 316.2C503.08 306.85 495.5 299.26 486.15 299.26C484.7 299.26 473.08 299.26 471.63 299.26C462.28 299.26 454.7 306.85 454.7 316.2C454.7 316.2 454.7 316.2 454.7 316.2C454.7 325.55 462.28 333.13 471.63 333.13C471.79 333.13 472.6 333.13 474.05 333.13C474.05 344.75 474.05 351.2 474.05 352.49C474.05 357.83 469.72 362.16 464.37 362.16C464.37 362.16 464.37 362.16 464.37 362.16C437.65 362.16 415.99 383.83 415.99 410.55C415.99 412.97 415.99 432.32 415.99 434.74C415.99 438.58 414.83 442.14 412.9 445.16C414.78 445.94 418.03 447.29 421.98 448.85C424.32 444.67 425.66 439.86 425.66 434.74C425.66 432.8 425.66 417.32 425.66 415.39C425.66 394.01 442.99 376.68 464.37 376.68C467.28 376.68 490.5 376.68 493.4 376.68C514.78 376.68 532.11 394.01 532.11 415.39C532.11 417.32 532.11 432.8 532.11 434.74C532.11 439.86 533.46 444.67 535.8 448.85C539.75 447.29 543 445.94 544.88 445.16C542.95 442.14 541.79 438.58 541.79 434.74C541.79 429.9 541.79 412.97 541.79 410.55Z" id="c11mI4ulWx"></path><path d="M10 231.57C10 231.57 29.35 144.44 116.45 192.82C110.97 196.69 83.55 216.04 34.19 250.88C19.68 239.3 11.61 232.86 10 231.57Z" id="b6qzRWHaOx"></path><path d="M310 231.57C310 231.57 290.65 144.44 203.55 192.82C209.03 196.69 236.45 216.04 285.81 250.88C300.32 239.3 308.39 232.86 310 231.57Z" id="b457vc9vkt"></path><path d="M72.9 429.9C40.84 429.9 14.84 403.91 14.84 371.84C14.84 364.1 14.84 302.17 14.84 294.43C14.84 235.64 62.5 187.98 121.29 187.98C129.03 187.98 190.97 187.98 198.71 187.98C257.5 187.98 305.16 235.64 305.16 294.43C305.16 302.17 305.16 364.1 305.16 371.84C305.16 403.91 279.16 429.9 247.1 429.9C212.26 429.9 90.32 429.9 72.9 429.9Z" id="cTyOeGx5"></path><path d="M198.71 187.98C190.97 187.98 129.03 187.98 121.29 187.98C118.71 187.98 116.17 188.11 113.64 188.29C157.14 197.62 111.61 265.51 111.61 304.1C121.29 304.1 198.71 304.1 208.39 304.1C208.39 265.51 162.86 197.62 206.36 188.29C203.83 188.11 201.29 187.98 198.71 187.98Z" id="f1BuUGzFMA"></path><path d="M92.26 357.32C92.26 409.58 92.26 438.61 92.26 444.42C92.26 444.42 126.13 458.93 135.81 458.93C145.48 458.93 150.32 454.09 160 454.09C169.68 454.09 174.52 458.93 184.19 458.93C193.87 458.93 227.74 444.42 227.74 444.42C227.74 438.61 227.74 409.58 227.74 357.32L160 357.32L92.26 357.32Z" id="c3Y3xmc1IZ"></path><path d="M261.61 434.74C261.61 429.9 261.61 391.19 261.61 386.36C261.61 330.24 216.12 284.75 160 284.75C160 284.75 160 284.75 160 284.75C103.88 284.75 58.39 330.24 58.39 386.36C58.39 391.19 58.39 429.9 58.39 434.74C58.39 445.43 67.05 454.09 77.74 454.09C77.74 454.09 77.74 454.09 77.74 454.09C88.43 454.09 97.1 445.43 97.1 434.74C97.1 432.8 97.1 417.32 97.1 415.39C97.1 388.66 118.76 367 145.48 367C148.39 367 171.61 367 174.52 367C201.24 367 222.9 388.66 222.9 415.39C222.9 417.32 222.9 432.8 222.9 434.74C222.9 445.43 231.57 454.09 242.26 454.09C242.26 454.09 242.26 454.09 242.26 454.09C255.16 448.32 261.61 441.86 261.61 434.74Z" id="b4cUfjmUaL"></path><path d="M85 265.39C78.32 265.39 72.9 270.81 72.9 277.49C72.9 284.17 78.32 289.59 85 289.59C91.68 289.59 97.1 284.17 97.1 277.49C97.1 270.81 91.68 265.39 85 265.39Z" id="a5D9D01FOk"></path><path d="M235 265.39C228.32 265.39 222.9 270.81 222.9 277.49C222.9 284.17 228.32 289.59 235 289.59C241.68 289.59 247.1 284.17 247.1 277.49C247.1 270.81 241.68 265.39 235 265.39Z" id="a1auKop8bV"></path><path d="M222.9 410.55C222.9 383.83 201.24 362.16 174.52 362.16C174.52 362.16 174.52 362.16 174.52 362.16C169.17 362.16 164.84 357.83 164.84 352.49C164.84 351.2 164.84 344.75 164.84 333.13C166.29 333.13 167.1 333.13 167.26 333.13C176.61 333.13 184.19 325.55 184.19 316.2C184.19 316.2 184.19 316.2 184.19 316.2C184.19 306.85 176.61 299.26 167.26 299.26C165.81 299.26 154.19 299.26 152.74 299.26C143.39 299.26 135.81 306.85 135.81 316.2C135.81 316.2 135.81 316.2 135.81 316.2C135.81 325.55 143.39 333.13 152.74 333.13C152.9 333.13 153.71 333.13 155.16 333.13C155.16 344.75 155.16 351.2 155.16 352.49C155.16 357.83 150.83 362.16 145.48 362.16C145.48 362.16 145.48 362.16 145.48 362.16C118.76 362.16 97.1 383.83 97.1 410.55C97.1 412.97 97.1 432.32 97.1 434.74C97.1 438.58 95.94 442.14 94.01 445.16C95.89 445.94 99.14 447.29 103.09 448.85C105.43 444.67 106.77 439.86 106.77 434.74C106.77 432.8 106.77 417.32 106.77 415.39C106.77 394.01 124.1 376.68 145.48 376.68C148.39 376.68 171.61 376.68 174.52 376.68C195.89 376.68 213.23 394.01 213.23 415.39C213.23 417.32 213.23 432.8 213.23 434.74C213.23 439.86 214.57 444.67 216.91 448.85C220.86 447.29 224.11 445.94 225.99 445.16C224.06 442.14 222.9 438.58 222.9 434.74C222.9 429.9 222.9 412.97 222.9 410.55Z" id="gn3M2PDVC"></path><path d="M403.09 194.07C405.4 194.63 407.43 196.04 408.62 198.18C414.01 208.12 414.52 208.34 414.97 210.32C439.36 204.2 452.45 215.3 456.31 197.57C460.71 177.33 439.26 154.4 428.02 160.63C418.93 165.67 407.02 182.21 403.09 194.07Z" id="aYbgwffuL"></path><path d="M414.97 210.32C439.65 204.13 457.39 216.68 456.81 191.94C456.79 190.84 456.69 189.73 456.56 188.7C452.64 173.73 415.27 204.89 413.27 206.57C413.85 207.71 414.59 208.64 414.97 210.32Z" id="b3dOT8SAUV"></path><path d="M387.65 202.63C375.51 199.67 355.16 201.01 346.07 206.05C334.83 212.28 342.91 242.61 362.41 249.6C379.49 255.73 377.02 238.75 395.13 221.31C393.69 219.88 393.72 219.23 388.21 209.5C387.02 207.36 386.89 204.88 387.65 202.63Z" id="aexxLWj4Q"></path><path d="M353.61 203.24C350.68 203.99 348.1 204.92 346.07 206.05C334.83 212.28 342.91 242.61 362.41 249.6C370.66 252.56 374.35 250.13 378 244.86C376.57 244.71 374.96 244.32 373.13 243.66C355.93 237.49 347.62 213.16 353.61 203.24Z" id="b1vbHkUfub"></path><path d="M354.76 245.12C356.46 246.53 358.43 247.84 360.49 248.81C363.55 250.24 367.92 251.52 371.37 250.5C379.41 248.13 381.09 234.82 395.13 221.31C394.59 220.77 393.55 219.04 392.85 217.88C390.37 218.69 344.14 233.86 354.76 245.12Z" id="a4nrH1IVze"></path><path d="M366.71 239.55C364.64 238.58 362.68 237.26 360.98 235.86C360.14 234.97 359.66 234.07 359.48 233.15C354.04 237.12 351.19 241.34 354.76 245.12C356.46 246.53 358.43 247.84 360.49 248.81C363.55 250.24 367.92 251.52 371.37 250.5C375.82 249.19 378.33 244.52 382.06 238.32C380.74 239.72 379.31 240.73 377.58 241.24C374.14 242.26 369.77 240.98 366.71 239.55Z" id="b29HZsSyId"></path><path d="M392.21 196.87C387.45 199.51 385.56 205.23 387.99 209.61C388.54 210.61 392.96 218.58 393.52 219.58C395.95 223.97 401.8 225.39 406.56 222.76C406.92 222.56 409.78 220.97 410.14 220.77C414.9 218.14 416.79 212.42 414.36 208.03C413.8 207.03 409.38 199.06 408.83 198.07C406.4 193.68 400.55 192.25 395.79 194.89C395.07 195.29 392.57 196.67 392.21 196.87Z" id="c2IRR0Jzq"></path><path d="M398.41 203.84C396.6 200.57 397.19 196.57 399.57 193.65C396.57 194.03 395.06 195.44 392.21 196.87C387.45 199.51 385.56 205.23 387.99 209.62C388.55 210.61 392.96 218.58 393.52 219.58C395.95 223.97 401.8 225.39 406.56 222.76C406.92 222.56 409.78 220.97 410.14 220.77C411.35 220.1 412.38 219.23 413.2 218.22C409.46 218.7 405.75 217.07 403.94 213.8C402.83 211.81 398.96 204.84 398.41 203.84Z" id="j4pXn1ULUS"></path><path d="M568.07 204.17C568.74 206.45 568.53 208.92 567.27 211.02C561.36 220.66 561.42 221.21 559.93 222.58C577.43 240.65 574.36 257.54 591.65 252.01C611.37 245.7 620.5 215.66 609.49 209.05C600.58 203.69 580.3 201.65 568.07 204.17Z" id="a2vvf0QWDA"></path><path d="M559.93 222.58C577.64 240.86 575.64 262.51 596.77 249.64C597.71 249.06 598.62 248.43 599.45 247.79C610.45 236.91 564.79 220.13 562.33 219.24C561.63 220.31 561.2 221.41 559.93 222.58Z" id="c3qseopODm"></path><path d="M552.93 195.08C549.42 183.09 538.09 166.14 529.18 160.78C518.17 154.17 495.94 176.33 499.63 196.71C502.87 214.57 516.34 203.93 540.5 210.9C541.01 208.94 541.59 208.63 547.26 199C548.53 196.9 550.6 195.55 552.93 195.08Z" id="cdO7rtrRJ"></path><path d="M535.39 165.91C533.27 163.75 531.17 161.98 529.18 160.78C518.17 154.17 495.94 176.33 499.63 196.71C501.19 205.34 505.14 207.31 511.53 207.84C510.95 206.52 510.48 204.94 510.14 203.02C506.88 185.05 523.8 165.68 535.39 165.91Z" id="ar3T7r0GK"></path><path d="M499.69 187.84C499.32 190.02 499.17 192.38 499.36 194.65C499.65 198.02 500.73 202.44 503.33 204.92C509.41 210.7 521.77 205.5 540.5 210.9C540.69 210.16 541.67 208.4 542.33 207.22C540.39 205.46 504.13 173.02 499.69 187.84Z" id="e18pI5rF3z"></path><path d="M510.49 195.4C510.3 193.13 510.45 190.77 510.82 188.59C511.17 187.43 511.71 186.56 512.42 185.94C506.26 183.22 501.18 182.86 499.69 187.84C499.32 190.02 499.17 192.38 499.36 194.65C499.65 198.02 500.73 202.44 503.33 204.92C506.7 208.12 511.99 207.95 519.23 208.08C517.35 207.64 515.76 206.91 514.46 205.67C511.86 203.2 510.78 198.78 510.49 195.4Z" id="b1nZESBWgP"></path><path d="M560.2 196.15C555.54 193.35 549.64 194.57 547.05 198.87C546.47 199.85 541.77 207.66 541.19 208.64C538.6 212.94 540.29 218.72 544.96 221.52C545.31 221.73 548.11 223.42 548.46 223.63C553.13 226.43 559.02 225.21 561.61 220.91C562.2 219.93 566.89 212.12 567.48 211.14C570.06 206.84 568.37 201.06 563.71 198.26C563 197.84 560.55 196.36 560.2 196.15Z" id="cLwNzTpm9"></path><path d="M557.27 205.01C559.19 201.8 562.95 200.31 566.67 200.92C564.84 198.51 562.87 197.9 560.2 196.15C555.54 193.35 549.64 194.57 547.05 198.87C546.47 199.85 541.77 207.66 541.19 208.64C538.6 212.94 540.29 218.72 544.96 221.52C545.31 221.73 548.11 223.42 548.46 223.63C549.65 224.35 550.93 224.8 552.2 225C549.92 222 549.47 217.98 551.4 214.77C552.57 212.82 556.68 205.99 557.27 205.01Z" id="d37hcPbzLv"></path><path d="M175.16 438.37C172.13 438.37 147.87 438.37 144.84 438.37C144.84 438.37 134 416.95 89.98 416.95C89.98 416.95 83.74 431.76 83.74 448.85C83.74 465.94 89.98 480.75 89.98 480.75C134 480.75 144.84 459.33 144.84 459.33C144.84 459.34 144.84 459.36 144.84 459.41L175.16 459.41C175.16 459.36 175.16 459.34 175.16 459.33C175.16 459.33 186 480.75 230.02 480.75C230.02 480.75 236.26 465.94 236.26 448.85C236.26 431.76 230.02 416.95 230.02 416.95C186 416.95 186.13 434.09 175.16 438.37Z" id="aCQUQa35r"></path><path d="M175.16 438.37C174.15 438.37 169.1 438.37 160 438.37L160 459.41L175.16 459.41C175.16 459.36 175.16 459.34 175.16 459.33C175.16 459.33 186 480.75 230.02 480.75C230.02 480.75 236.26 465.94 236.26 448.85C236.26 431.76 230.02 416.95 230.02 416.95C186 416.95 186.13 434.09 175.16 438.37Z" id="e27ZEEc6mH"></path><path d="M175.16 438.37C175.16 438.37 175.16 438.37 175.16 438.37C175.16 450.99 175.16 458.01 175.16 459.41C175.16 459.41 175.16 459.41 175.16 459.41C156.97 459.41 146.86 459.41 144.84 459.41C144.84 459.41 144.84 459.41 144.84 459.41C144.84 446.79 144.84 439.77 144.84 438.37C144.84 438.37 144.84 438.37 144.84 438.37C163.03 438.37 173.14 438.37 175.16 438.37Z" id="dM2Tw0Bgs"></path><path d="M175.16 438.37C175.16 438.37 175.16 438.37 175.16 438.37C175.16 450.99 175.16 458.01 175.16 459.41C175.16 459.41 175.16 459.41 175.16 459.41C166.07 459.41 161.01 459.41 160 459.41C160 459.41 160 459.41 160 459.41C160 446.79 160 439.77 160 438.37C160 438.37 160 438.37 160 438.37C169.1 438.37 174.15 438.37 175.16 438.37Z" id="b5d9X9fEl"></path></defs><g><g><g><use xlink:href="#bDBYEnZWj" opacity="1" fill="#a06446" fill-opacity="1"></use><g><use xlink:href="#bDBYEnZWj" opacity="1" fill-opacity="0" stroke="#000000" stroke-width="1" stroke-opacity="0"></use></g></g><g><use xlink:href="#cx4dOd9zo" opacity="1" fill="#a06446" fill-opacity="1"></use><g><use xlink:href="#cx4dOd9zo" opacity="1" fill-opacity="0" stroke="#000000" stroke-width="1" stroke-opacity="0"></use></g></g><g><use xlink:href="#e1k2DIYPEC" opacity="1" fill="#be7d55" fill-opacity="1"></use><g><use xlink:href="#e1k2DIYPEC" opacity="1" fill-opacity="0" stroke="#000000" stroke-width="1" stroke-opacity="0"></use></g></g><g><use xlink:href="#b1UmylOUrO" opacity="1" fill="#ffdeb7" fill-opacity="1"></use><g><use xlink:href="#b1UmylOUrO" opacity="1" fill-opacity="0" stroke="#000000" stroke-width="1" stroke-opacity="0"></use></g></g><g><use xlink:href="#fHTuXjdoq" opacity="1" fill="#ffdeb7" fill-opacity="1"></use><g><use xlink:href="#fHTuXjdoq" opacity="1" fill-opacity="0" stroke="#000000" stroke-width="1" stroke-opacity="0"></use></g></g><g><use xlink:href="#c14TJgbEb" opacity="1" fill="#ffebd2" fill-opacity="1"></use><g><use xlink:href="#c14TJgbEb" opacity="1" fill-opacity="0" stroke="#000000" stroke-width="1" stroke-opacity="0"></use></g></g><g><use xlink:href="#a1fTULcJJ5" opacity="1" fill="#464655" fill-opacity="1"></use><g><use xlink:href="#a1fTULcJJ5" opacity="1" fill-opacity="0" stroke="#000000" stroke-width="1" stroke-opacity="0"></use></g></g><g><use xlink:href="#egWCjTV1k" opacity="1" fill="#464655" fill-opacity="1"></use><g><use xlink:href="#egWCjTV1k" opacity="1" fill-opacity="0" stroke="#000000" stroke-width="1" stroke-opacity="0"></use></g></g><g><use xlink:href="#c11mI4ulWx" opacity="1" fill="#464655" fill-opacity="1"></use><g><use xlink:href="#c11mI4ulWx" opacity="1" fill-opacity="0" stroke="#000000" stroke-width="1" stroke-opacity="0"></use></g></g><g><use xlink:href="#b6qzRWHaOx" opacity="1" fill="#a06446" fill-opacity="1"></use><g><use xlink:href="#b6qzRWHaOx" opacity="1" fill-opacity="0" stroke="#000000" stroke-width="1" stroke-opacity="0"></use></g></g><g><use xlink:href="#b457vc9vkt" opacity="1" fill="#a06446" fill-opacity="1"></use><g><use xlink:href="#b457vc9vkt" opacity="1" fill-opacity="0" stroke="#000000" stroke-width="1" stroke-opacity="0"></use></g></g><g><use xlink:href="#cTyOeGx5" opacity="1" fill="#be7d55" fill-opacity="1"></use><g><use xlink:href="#cTyOeGx5" opacity="1" fill-opacity="0" stroke="#000000" stroke-width="1" stroke-opacity="0"></use></g></g><g><use xlink:href="#f1BuUGzFMA" opacity="1" fill="#ffdeb7" fill-opacity="1"></use><g><use xlink:href="#f1BuUGzFMA" opacity="1" fill-opacity="0" stroke="#000000" stroke-width="1" stroke-opacity="0"></use></g></g><g><use xlink:href="#c3Y3xmc1IZ" opacity="1" fill="#ffdeb7" fill-opacity="1"></use><g><use xlink:href="#c3Y3xmc1IZ" opacity="1" fill-opacity="0" stroke="#000000" stroke-width="1" stroke-opacity="0"></use></g></g><g><use xlink:href="#b4cUfjmUaL" opacity="1" fill="#ffebd2" fill-opacity="1"></use><g><use xlink:href="#b4cUfjmUaL" opacity="1" fill-opacity="0" stroke="#000000" stroke-width="1" stroke-opacity="0"></use></g></g><g><use xlink:href="#a5D9D01FOk" opacity="1" fill="#464655" fill-opacity="1"></use><g><use xlink:href="#a5D9D01FOk" opacity="1" fill-opacity="0" stroke="#000000" stroke-width="1" stroke-opacity="0"></use></g></g><g><use xlink:href="#a1auKop8bV" opacity="1" fill="#464655" fill-opacity="1"></use><g><use xlink:href="#a1auKop8bV" opacity="1" fill-opacity="0" stroke="#000000" stroke-width="1" stroke-opacity="0"></use></g></g><g><use xlink:href="#gn3M2PDVC" opacity="1" fill="#464655" fill-opacity="1"></use><g><use xlink:href="#gn3M2PDVC" opacity="1" fill-opacity="0" stroke="#000000" stroke-width="1" stroke-opacity="0"></use></g></g><g><use xlink:href="#aYbgwffuL" opacity="1" fill="#f96989" fill-opacity="1"></use><g><use xlink:href="#aYbgwffuL" opacity="1" fill-opacity="0" stroke="#000000" stroke-width="1" stroke-opacity="0"></use></g></g><g><use xlink:href="#b3dOT8SAUV" opacity="1" fill="#ed5a81" fill-opacity="1"></use><g><use xlink:href="#b3dOT8SAUV" opacity="1" fill-opacity="0" stroke="#000000" stroke-width="1" stroke-opacity="0"></use></g></g><g><use xlink:href="#aexxLWj4Q" opacity="1" fill="#f96989" fill-opacity="1"></use><g><use xlink:href="#aexxLWj4Q" opacity="1" fill-opacity="0" stroke="#000000" stroke-width="1" stroke-opacity="0"></use></g></g><g><use xlink:href="#b1vbHkUfub" opacity="1" fill="#ed5a81" fill-opacity="1"></use><g><use xlink:href="#b1vbHkUfub" opacity="1" fill-opacity="0" stroke="#000000" stroke-width="1" stroke-opacity="0"></use></g></g><g><use xlink:href="#a4nrH1IVze" opacity="1" fill="#ed5a81" fill-opacity="1"></use><g><use xlink:href="#a4nrH1IVze" opacity="1" fill-opacity="0" stroke="#000000" stroke-width="1" stroke-opacity="0"></use></g></g><g><use xlink:href="#b29HZsSyId" opacity="1" fill="#dd4a78" fill-opacity="1"></use><g><use xlink:href="#b29HZsSyId" opacity="1" fill-opacity="0" stroke="#000000" stroke-width="1" stroke-opacity="0"></use></g></g><g><use xlink:href="#c2IRR0Jzq" opacity="1" fill="#ed5a81" fill-opacity="1"></use><g><use xlink:href="#c2IRR0Jzq" opacity="1" fill-opacity="0" stroke="#000000" stroke-width="1" stroke-opacity="0"></use></g></g><g><use xlink:href="#j4pXn1ULUS" opacity="1" fill="#dd4a78" fill-opacity="1"></use><g><use xlink:href="#j4pXn1ULUS" opacity="1" fill-opacity="0" stroke="#000000" stroke-width="1" stroke-opacity="0"></use></g></g><g><use xlink:href="#a2vvf0QWDA" opacity="1" fill="#f96989" fill-opacity="1"></use><g><use xlink:href="#a2vvf0QWDA" opacity="1" fill-opacity="0" stroke="#000000" stroke-width="1" stroke-opacity="0"></use></g></g><g><use xlink:href="#c3qseopODm" opacity="1" fill="#ed5a81" fill-opacity="1"></use><g><use xlink:href="#c3qseopODm" opacity="1" fill-opacity="0" stroke="#000000" stroke-width="1" stroke-opacity="0"></use></g></g><g><use xlink:href="#cdO7rtrRJ" opacity="1" fill="#f96989" fill-opacity="1"></use><g><use xlink:href="#cdO7rtrRJ" opacity="1" fill-opacity="0" stroke="#000000" stroke-width="1" stroke-opacity="0"></use></g></g><g><use xlink:href="#ar3T7r0GK" opacity="1" fill="#ed5a81" fill-opacity="1"></use><g><use xlink:href="#ar3T7r0GK" opacity="1" fill-opacity="0" stroke="#000000" stroke-width="1" stroke-opacity="0"></use></g></g><g><use xlink:href="#e18pI5rF3z" opacity="1" fill="#ed5a81" fill-opacity="1"></use><g><use xlink:href="#e18pI5rF3z" opacity="1" fill-opacity="0" stroke="#000000" stroke-width="1" stroke-opacity="0"></use></g></g><g><use xlink:href="#b1nZESBWgP" opacity="1" fill="#dd4a78" fill-opacity="1"></use><g><use xlink:href="#b1nZESBWgP" opacity="1" fill-opacity="0" stroke="#000000" stroke-width="1" stroke-opacity="0"></use></g></g><g><use xlink:href="#cLwNzTpm9" opacity="1" fill="#ed5a81" fill-opacity="1"></use><g><use xlink:href="#cLwNzTpm9" opacity="1" fill-opacity="0" stroke="#000000" stroke-width="1" stroke-opacity="0"></use></g></g><g><use xlink:href="#d37hcPbzLv" opacity="1" fill="#dd4a78" fill-opacity="1"></use><g><use xlink:href="#d37hcPbzLv" opacity="1" fill-opacity="0" stroke="#000000" stroke-width="1" stroke-opacity="0"></use></g></g><g><use xlink:href="#aCQUQa35r" opacity="1" fill="#181818" fill-opacity="1"></use><g><use xlink:href="#aCQUQa35r" opacity="1" fill-opacity="0" stroke="#000000" stroke-width="1" stroke-opacity="0"></use></g></g><g><use xlink:href="#e27ZEEc6mH" opacity="1" fill="#0a0a0a" fill-opacity="1"></use><g><use xlink:href="#e27ZEEc6mH" opacity="1" fill-opacity="0" stroke="#000000" stroke-width="1" stroke-opacity="0"></use></g></g><g><use xlink:href="#dM2Tw0Bgs" opacity="1" fill="#0a0a0a" fill-opacity="1"></use><g><use xlink:href="#dM2Tw0Bgs" opacity="1" fill-opacity="0" stroke="#000000" stroke-width="1" stroke-opacity="0"></use></g></g><g><use xlink:href="#b5d9X9fEl" opacity="1" fill="#202020" fill-opacity="1"></use><g><use xlink:href="#b5d9X9fEl" opacity="1" fill-opacity="0" stroke="#000000" stroke-width="1" stroke-opacity="0"></use></g></g></g></g></svg>